<svg xmlns="http://www.w3.org/2000/svg" width="141" height="43" viewBox="0 0 141 43" fill="none">
                                                <path d="M135.549 0H5.4498C2.44066 0 0 2.4364 0 5.44122V37.364C0 40.3688 2.43972 42.8052 5.4498 42.8052H135.549C138.559 42.8052 140.999 40.3697 140.999 37.364V5.44122C140.999 2.4364 138.559 0 135.549 0Z" fill="black"></path>
                                                <path d="M14.8441 17.4865C12.5571 21.4487 14.0106 27.4621 16.5402 31.1073C17.8027 32.9304 19.0811 34.5665 20.8315 34.5665C20.8643 34.5665 20.8971 34.5665 20.9317 34.5646C21.754 34.5319 22.3487 34.2795 22.9238 34.0345C23.5691 33.7597 24.2368 33.4764 25.2839 33.4764C26.3309 33.4764 26.9154 33.7513 27.5297 34.0158C28.1357 34.2776 28.7594 34.5487 29.681 34.531C31.6534 34.4945 32.8643 32.7285 33.932 31.1709C35.0465 29.5451 35.6066 27.966 35.7948 27.362L35.8023 27.3377C35.8379 27.2302 35.7873 27.1134 35.6843 27.0666C35.6843 27.0666 35.6712 27.061 35.6684 27.0601C35.3209 26.918 32.2743 25.5689 32.2425 21.8918C32.2125 18.9038 34.5277 17.3229 34.9922 17.0359L35.0137 17.0219C35.0643 16.9901 35.099 16.9386 35.1111 16.8797C35.1233 16.8208 35.1111 16.7601 35.0765 16.7105C33.4787 14.376 31.0296 14.0245 30.0434 13.9824C29.9011 13.9684 29.7531 13.9609 29.6051 13.9609C28.4466 13.9609 27.3377 14.3975 26.4461 14.7481C25.8308 14.9903 25.2989 15.1997 24.9336 15.1997C24.5215 15.1997 23.9868 14.9875 23.3686 14.7435C22.5407 14.4153 21.6023 14.0441 20.6095 14.0441C20.5861 14.0441 20.5627 14.0441 20.5393 14.0451C18.2298 14.0787 16.0476 15.3979 14.8451 17.4856L14.8441 17.4865Z" fill="white"></path>
                                                <path d="M30.0477 7.55878C28.6494 7.61581 26.9721 8.475 25.97 9.64738C25.1177 10.6319 24.2851 12.2754 24.5043 13.9312C24.5183 14.035 24.6026 14.1144 24.7075 14.1228C24.8021 14.1303 24.8976 14.1341 24.9941 14.1341C26.3614 14.1341 27.8365 13.3786 28.8433 12.1632C29.9035 10.8796 30.4392 9.23228 30.2772 7.75605C30.2641 7.64012 30.162 7.5541 30.0477 7.55878Z" fill="white"></path>
                                                <path d="M46.1406 8.42969H48.792C49.4879 8.42969 50.1051 8.57273 50.6445 8.85975C51.184 9.14677 51.6035 9.54317 51.9032 10.0499C52.2029 10.5566 52.3528 11.1316 52.3528 11.7748C52.3528 12.418 52.2029 12.993 51.9032 13.4997C51.6035 14.0065 51.184 14.4029 50.6445 14.689C50.1051 14.976 49.4879 15.119 48.792 15.119H46.1406V8.42969ZM48.7536 14.6796C49.3727 14.6796 49.9177 14.5571 50.3907 14.3113C50.8627 14.0663 51.227 13.7232 51.4818 13.2838C51.7365 12.8444 51.8648 12.3414 51.8648 11.7739C51.8648 11.2064 51.7375 10.7034 51.4818 10.264C51.2261 9.82458 50.8627 9.4824 50.3907 9.23652C49.9187 8.99157 49.3727 8.86909 48.7536 8.86909H46.6286V14.6787H48.7536V14.6796Z" fill="white"></path>
                                                <path d="M54.5689 14.826C54.1896 14.6091 53.8909 14.308 53.6736 13.9228C53.4563 13.5377 53.3477 13.1029 53.3477 12.6186C53.3477 12.1343 53.4563 11.6996 53.6736 11.3144C53.8909 10.9292 54.1887 10.6282 54.5689 10.4113C54.9482 10.1944 55.3744 10.0859 55.8473 10.0859C56.3203 10.0859 56.7455 10.1944 57.1257 10.4113C57.505 10.6282 57.8038 10.9292 58.0211 11.3144C58.2383 11.6996 58.347 12.1343 58.347 12.6186C58.347 13.1029 58.2383 13.5377 58.0211 13.9228C57.8038 14.308 57.506 14.6091 57.1257 14.826C56.7464 15.0429 56.3203 15.1513 55.8473 15.1513C55.3744 15.1513 54.9492 15.0429 54.5689 14.826ZM56.8757 14.4529C57.1791 14.2744 57.4179 14.0266 57.594 13.7078C57.7691 13.389 57.8572 13.0263 57.8572 12.6186C57.8572 12.211 57.7691 11.8483 57.594 11.5295C57.4179 11.2106 57.1791 10.9629 56.8757 10.7843C56.5722 10.6058 56.2294 10.5169 55.8464 10.5169C55.4633 10.5169 55.1206 10.6058 54.8171 10.7843C54.5137 10.9629 54.2748 11.2116 54.0988 11.5295C53.9227 11.8483 53.8356 12.211 53.8356 12.6186C53.8356 13.0263 53.9236 13.3899 54.0988 13.7078C54.2739 14.0266 54.5137 14.2753 54.8171 14.4529C55.1206 14.6315 55.4633 14.7203 55.8464 14.7203C56.2294 14.7203 56.5722 14.6315 56.8757 14.4529Z" fill="white"></path>
                                                <path d="M66.8256 10.1289L64.93 15.1167H64.4805L62.7956 10.788L61.1014 15.1167H60.6612L58.7656 10.1289H59.2255L60.8907 14.5819L62.5943 10.1289H63.0063L64.7006 14.5726L66.3854 10.1289H66.8256Z" fill="white"></path>
                                                <path d="M71.8626 10.6319C72.226 10.9947 72.4086 11.5173 72.4086 12.1989V15.113H71.93V12.2362C71.93 11.6753 71.7877 11.249 71.5039 10.9554C71.2201 10.6628 70.823 10.516 70.3117 10.516C69.7244 10.516 69.2618 10.6918 68.9237 11.0414C68.5856 11.392 68.4161 11.8632 68.4161 12.456V15.1121H67.9375V10.1243H68.3973V11.2041C68.5697 10.8535 68.8263 10.5796 69.1681 10.3823C69.509 10.185 69.9136 10.0859 70.3791 10.0859C71.0047 10.0859 71.4992 10.2673 71.8626 10.631V10.6319Z" fill="white"></path>
                                                <path d="M74.3789 8.02344H74.8575V15.1139H74.3789V8.02344Z" fill="white"></path>
                                                <path d="M77.5494 14.826C77.1692 14.6091 76.8713 14.308 76.654 13.9228C76.4368 13.5377 76.3281 13.1029 76.3281 12.6186C76.3281 12.1343 76.4368 11.6996 76.654 11.3144C76.8713 10.9292 77.1692 10.6282 77.5494 10.4113C77.9287 10.1944 78.3548 10.0859 78.8269 10.0859C79.2989 10.0859 79.725 10.1944 80.1052 10.4113C80.4846 10.6282 80.7833 10.9292 81.0006 11.3144C81.2179 11.6996 81.3256 12.1343 81.3256 12.6186C81.3256 13.1029 81.2169 13.5377 81.0006 13.9228C80.7833 14.308 80.4855 14.6091 80.1052 14.826C79.725 15.0429 79.2998 15.1513 78.8269 15.1513C78.3539 15.1513 77.9287 15.0429 77.5494 14.826ZM79.8561 14.4529C80.1596 14.2744 80.3984 14.0266 80.5745 13.7078C80.7496 13.389 80.8376 13.0263 80.8376 12.6186C80.8376 12.211 80.7496 11.8483 80.5745 11.5295C80.3984 11.2106 80.1596 10.9629 79.8561 10.7843C79.5527 10.6058 79.2099 10.5169 78.8269 10.5169C78.4438 10.5169 78.101 10.6058 77.7976 10.7843C77.4941 10.9629 77.2553 11.2116 77.0792 11.5295C76.9032 11.8483 76.8161 12.211 76.8161 12.6186C76.8161 13.0263 76.9041 13.3899 77.0792 13.7078C77.2544 14.0266 77.4941 14.2753 77.7976 14.4529C78.101 14.6315 78.4438 14.7203 78.8269 14.7203C79.2099 14.7203 79.5527 14.6315 79.8561 14.4529Z" fill="white"></path>
                                                <path d="M85.9045 10.562C86.2361 10.877 86.4018 11.3408 86.4018 11.9522V15.115H85.942V14.2259C85.7828 14.5185 85.5496 14.7467 85.2433 14.9093C84.9371 15.072 84.5699 15.1534 84.1429 15.1534C83.5875 15.1534 83.1492 15.0225 82.827 14.7616C82.5048 14.5008 82.3438 14.1567 82.3438 13.7295C82.3438 13.3022 82.4917 12.9797 82.7886 12.7216C83.0855 12.4636 83.5594 12.3346 84.2103 12.3346H85.9242V11.9335C85.9242 11.4688 85.7978 11.1154 85.5458 10.8724C85.2939 10.6302 84.9249 10.5096 84.4398 10.5096C84.1082 10.5096 83.7907 10.5667 83.4873 10.6816C83.1838 10.7966 82.9272 10.949 82.7165 11.1407L82.4767 10.7966C82.7259 10.5741 83.0256 10.4002 83.3768 10.2759C83.728 10.1515 84.0951 10.0898 84.4772 10.0898C85.0963 10.0898 85.5721 10.2478 85.9036 10.5629L85.9045 10.562ZM85.2677 14.4755C85.558 14.2848 85.7762 14.0071 85.9233 13.6444V12.7076H84.2197C83.728 12.7076 83.3721 12.7964 83.152 12.975C82.9319 13.1536 82.8214 13.3985 82.8214 13.7108C82.8214 14.023 82.9422 14.2923 83.1848 14.4802C83.4273 14.6681 83.7683 14.7626 84.2094 14.7626C84.6243 14.7626 84.9764 14.6672 85.2667 14.4755H85.2677Z" fill="white"></path>
                                                <path d="M92.8261 8.02344V15.1139H92.3568V13.9387C92.1592 14.3276 91.8811 14.6268 91.5242 14.8371C91.1665 15.0475 90.7619 15.1522 90.3086 15.1522C89.8553 15.1522 89.4217 15.0437 89.0452 14.8268C88.6687 14.6099 88.3737 14.3108 88.1601 13.9284C87.9466 13.546 87.8398 13.1103 87.8398 12.6195C87.8398 12.1287 87.9466 11.6911 88.1601 11.3059C88.3737 10.9207 88.6687 10.6216 89.0452 10.4075C89.4217 10.1943 89.8431 10.0877 90.3086 10.0877C90.7741 10.0877 91.1562 10.1924 91.5102 10.4028C91.8642 10.6132 92.1433 10.9058 92.3475 11.2816V8.02344H92.8261ZM91.366 14.4547C91.6694 14.2762 91.9082 14.0284 92.0843 13.7096C92.2594 13.3908 92.3475 13.0281 92.3475 12.6204C92.3475 12.2128 92.2594 11.8501 92.0843 11.5312C91.9082 11.2124 91.6694 10.9647 91.366 10.7861C91.0625 10.6075 90.7197 10.5187 90.3367 10.5187C89.9536 10.5187 89.6109 10.6075 89.3074 10.7861C89.004 10.9647 88.7652 11.2134 88.5891 11.5312C88.413 11.8501 88.3259 12.2128 88.3259 12.6204C88.3259 13.0281 88.414 13.3917 88.5891 13.7096C88.7642 14.0284 89.004 14.2771 89.3074 14.4547C89.6109 14.6333 89.9536 14.7221 90.3367 14.7221C90.7197 14.7221 91.0625 14.6333 91.366 14.4547Z" fill="white"></path>
                                                <path d="M97.9791 14.826C97.5998 14.6091 97.301 14.308 97.0837 13.9228C96.8665 13.5377 96.7578 13.1029 96.7578 12.6186C96.7578 12.1343 96.8665 11.6996 97.0837 11.3144C97.301 10.9292 97.5988 10.6282 97.9791 10.4113C98.3584 10.1944 98.7845 10.0859 99.2575 10.0859C99.7304 10.0859 100.156 10.1944 100.535 10.4113C100.914 10.6282 101.213 10.9292 101.43 11.3144C101.648 11.6996 101.755 12.1343 101.755 12.6186C101.755 13.1029 101.647 13.5377 101.43 13.9228C101.213 14.308 100.915 14.6091 100.535 14.826C100.156 15.0429 99.7295 15.1513 99.2575 15.1513C98.7855 15.1513 98.3593 15.0429 97.9791 14.826ZM100.286 14.4529C100.589 14.2744 100.828 14.0266 101.004 13.7078C101.179 13.389 101.267 13.0263 101.267 12.6186C101.267 12.211 101.179 11.8483 101.004 11.5295C100.828 11.2106 100.589 10.9629 100.286 10.7843C99.9824 10.6058 99.6396 10.5169 99.2565 10.5169C98.8735 10.5169 98.5307 10.6058 98.2273 10.7843C97.9238 10.9629 97.685 11.2116 97.5089 11.5295C97.3329 11.8483 97.2458 12.211 97.2458 12.6186C97.2458 13.0263 97.3338 13.3899 97.5089 13.7078C97.6841 14.0266 97.9238 14.2753 98.2273 14.4529C98.5307 14.6315 98.8735 14.7203 99.2565 14.7203C99.6396 14.7203 99.9824 14.6315 100.286 14.4529Z" fill="white"></path>
                                                <path d="M107.167 10.6319C107.531 10.9947 107.713 11.5173 107.713 12.1989V15.113H107.235V12.2362C107.235 11.6753 107.092 11.249 106.809 10.9554C106.525 10.6628 106.128 10.516 105.616 10.516C105.029 10.516 104.566 10.6918 104.228 11.0414C103.89 11.392 103.721 11.8632 103.721 12.456V15.1121H103.242V10.1243H103.702V11.2041C103.874 10.8535 104.131 10.5796 104.473 10.3823C104.814 10.185 105.218 10.0859 105.684 10.0859C106.309 10.0859 106.804 10.2673 107.167 10.631V10.6319Z" fill="white"></path>
                                                <path d="M114.623 14.8C114.501 14.915 114.35 15.002 114.167 15.0627C113.986 15.1235 113.796 15.1534 113.598 15.1534C113.163 15.1534 112.829 15.0338 112.593 14.7953C112.357 14.556 112.239 14.2241 112.239 13.7969V10.5387H111.32V10.1282H112.239V9.03906H112.718V10.1282H114.307V10.5387H112.718V13.7492C112.718 14.0736 112.795 14.3213 112.952 14.4896C113.108 14.6588 113.34 14.743 113.646 14.743C113.952 14.743 114.217 14.6504 114.421 14.4663L114.623 14.801V14.8Z" fill="white"></path>
                                                <path d="M119.878 10.6337C120.242 10.9965 120.424 11.5191 120.424 12.2006V15.1148H119.946V12.238C119.946 11.6771 119.803 11.2508 119.52 10.9572C119.236 10.6646 118.839 10.5178 118.327 10.5178C117.74 10.5178 117.277 10.6936 116.939 11.0432C116.601 11.3938 116.432 11.865 116.432 12.4577V15.1138H115.953V8.02344H116.432V11.1676C116.604 10.8235 116.859 10.558 117.198 10.3701C117.536 10.1822 117.935 10.0877 118.395 10.0877C119.02 10.0877 119.515 10.2691 119.878 10.6328V10.6337Z" fill="white"></path>
                                                <path d="M126.627 12.7336H122.33C122.343 13.1225 122.441 13.4675 122.626 13.7704C122.812 14.0734 123.062 14.3071 123.378 14.4726C123.693 14.638 124.049 14.7213 124.445 14.7213C124.77 14.7213 125.072 14.6624 125.35 14.5446C125.627 14.4268 125.858 14.2529 126.044 14.0238L126.321 14.3389C126.104 14.6007 125.831 14.8007 125.503 14.941C125.174 15.0812 124.818 15.1513 124.435 15.1513C123.937 15.1513 123.494 15.0429 123.104 14.826C122.714 14.6091 122.41 14.3099 122.19 13.9275C121.97 13.5451 121.859 13.1095 121.859 12.6186C121.859 12.1278 121.963 11.6996 122.17 11.3144C122.377 10.9292 122.663 10.6282 123.027 10.4113C123.391 10.1944 123.799 10.0859 124.252 10.0859C124.706 10.0859 125.112 10.1925 125.473 10.4057C125.833 10.6188 126.117 10.9171 126.325 11.2995C126.532 11.6818 126.636 12.1147 126.636 12.599L126.626 12.7327L126.627 12.7336ZM123.305 10.7413C123.024 10.8974 122.8 11.1172 122.63 11.4004C122.461 11.6837 122.363 12.0044 122.338 12.3606H126.167C126.148 12.0035 126.051 11.6856 125.879 11.4051C125.707 11.1246 125.48 10.9049 125.199 10.746C124.918 10.5871 124.603 10.5067 124.251 10.5067C123.9 10.5067 123.585 10.5852 123.304 10.7404L123.305 10.7413Z" fill="white"></path>
                                                <path d="M53.2259 29.8987H47.5007L46.3722 32.5445H44.1797L49.3326 21.1133H51.4267L56.5956 32.5445H54.3713L53.2259 29.8987ZM52.5225 28.2327L50.3628 23.2355L48.22 28.2327H52.5225Z" fill="white"></path>
                                                <path d="M64.9759 24.2702C65.6465 24.6404 66.1728 25.163 66.555 25.838C66.9361 26.513 67.1272 27.2918 67.1272 28.1735C67.1272 29.0551 66.9361 29.8367 66.555 30.5164C66.1728 31.197 65.6474 31.7224 64.9759 32.0926C64.3054 32.4629 63.5449 32.648 62.6935 32.648C61.5154 32.648 60.5835 32.2562 59.8961 31.4719V35.7014H57.8516V23.813H59.7987V24.9564C60.1368 24.5432 60.5535 24.2328 61.0499 24.0252C61.5463 23.8186 62.0941 23.7148 62.6935 23.7148C63.5439 23.7148 64.3044 23.9 64.9759 24.2702ZM64.3213 30.1489C64.8064 29.6488 65.049 28.9896 65.049 28.1735C65.049 27.3573 64.8064 26.6982 64.3213 26.197C63.8361 25.6969 63.2171 25.4463 62.465 25.4463C61.9743 25.4463 61.5322 25.5585 61.1398 25.781C60.7474 26.0045 60.4364 26.3223 60.207 26.7365C59.9775 27.1507 59.8633 27.6293 59.8633 28.1735C59.8633 28.7176 59.9775 29.1972 60.207 29.6104C60.4364 30.0246 60.7464 30.3425 61.1398 30.5659C61.5322 30.7894 61.9743 30.9006 62.465 30.9006C63.2171 30.9006 63.8361 30.6501 64.3213 30.1499V30.1489Z" fill="white"></path>
                                                <path d="M76.2025 24.2702C76.8731 24.6404 77.3994 25.163 77.7815 25.838C78.1627 26.513 78.3537 27.2918 78.3537 28.1735C78.3537 29.0551 78.1627 29.8367 77.7815 30.5164C77.3994 31.197 76.874 31.7224 76.2025 32.0926C75.5319 32.4629 74.7714 32.648 73.9201 32.648C72.7419 32.648 71.81 32.2562 71.1226 31.4719V35.7014H69.0781V23.813H71.0252V24.9564C71.3633 24.5432 71.7801 24.2328 72.2765 24.0252C72.7728 23.8186 73.3207 23.7148 73.9201 23.7148C74.7705 23.7148 75.531 23.9 76.2025 24.2702ZM75.5478 30.1489C76.033 29.6488 76.2755 28.9896 76.2755 28.1735C76.2755 27.3573 76.033 26.6982 75.5478 26.197C75.0627 25.6969 74.4436 25.4463 73.6916 25.4463C73.2008 25.4463 72.7588 25.5585 72.3664 25.781C71.9739 26.0045 71.663 26.3223 71.4336 26.7365C71.2041 27.1507 71.0898 27.6293 71.0898 28.1735C71.0898 28.7176 71.2041 29.1972 71.4336 29.6104C71.663 30.0246 71.973 30.3425 72.3664 30.5659C72.7588 30.7894 73.2008 30.9006 73.6916 30.9006C74.4436 30.9006 75.0627 30.6501 75.5478 30.1499V30.1489Z" fill="white"></path>
                                                <path d="M85.9976 32.3289C85.1743 32.0783 84.5225 31.7464 84.043 31.3332L84.7791 29.684C85.2483 30.0542 85.8234 30.3562 86.5052 30.5899C87.187 30.8246 87.8707 30.9414 88.5581 30.9414C89.4085 30.9414 90.0435 30.8059 90.464 30.5329C90.8836 30.2608 91.0933 29.9018 91.0933 29.4549C91.0933 29.1286 90.9763 28.8585 90.7412 28.6462C90.5061 28.434 90.2092 28.2685 89.8496 28.1479C89.49 28.0282 88.9992 27.8927 88.3773 27.7394C87.5045 27.5327 86.7983 27.3261 86.2589 27.1186C85.7194 26.912 85.2558 26.5875 84.8681 26.1472C84.4813 25.7059 84.2874 25.1104 84.2874 24.3587C84.2874 23.7276 84.4588 23.1527 84.8025 22.6356C85.1462 22.1186 85.6641 21.7073 86.3563 21.4025C87.0484 21.0977 87.8969 20.9453 88.8999 20.9453C89.5977 20.9453 90.2851 21.0323 90.9613 21.2062C91.6375 21.38 92.221 21.6306 92.7117 21.9569L92.0411 23.6061C91.5391 23.3125 91.0156 23.0891 90.4705 22.9367C89.9255 22.7843 89.3963 22.7086 88.884 22.7086C88.0439 22.7086 87.4202 22.8497 87.0109 23.133C86.6016 23.4163 86.3975 23.7921 86.3975 24.2596C86.3975 24.5859 86.5145 24.8533 86.7496 25.0599C86.9837 25.2665 87.2816 25.4301 87.6412 25.5498C88.0008 25.6695 88.4916 25.8059 89.1135 25.9583C89.9639 26.1547 90.6616 26.3585 91.2076 26.5707C91.7527 26.7829 92.2191 27.1074 92.6059 27.5421C92.9927 27.9778 93.1865 28.5658 93.1865 29.3053C93.1865 29.9364 93.0152 30.5086 92.6714 31.02C92.3277 31.5314 91.807 31.9399 91.1093 32.2447C90.4115 32.5495 89.5602 32.7019 88.5572 32.7019C87.674 32.7019 86.8208 32.5766 85.9966 32.3261L85.9976 32.3289Z" fill="white"></path>
                                                <path d="M100.357 32.0644C100.117 32.2607 99.825 32.4075 99.4822 32.5057C99.1385 32.6038 98.7761 32.6525 98.3939 32.6525C97.434 32.6525 96.6932 32.4019 96.1696 31.9017C95.6461 31.4015 95.3848 30.6714 95.3848 29.7131V25.5162H93.9453V23.8829H95.3848V21.8906H97.4293V23.8829H99.7688V25.5162H97.4293V29.6645C97.4293 30.0889 97.5323 30.4133 97.7402 30.6358C97.9472 30.8593 98.2469 30.9705 98.6403 30.9705C99.0982 30.9705 99.4803 30.8509 99.7857 30.6115L100.358 32.0653L100.357 32.0644Z" fill="white"></path>
                                                <path d="M103.281 32.0758C102.572 31.6953 102.019 31.1643 101.621 30.4836C101.223 29.803 101.023 29.0327 101.023 28.1725C101.023 27.3124 101.222 26.5448 101.621 25.8698C102.019 25.1948 102.572 24.6666 103.281 24.2861C103.99 23.9056 104.787 23.7148 105.67 23.7148C106.553 23.7148 107.366 23.9056 108.075 24.2861C108.784 24.6675 109.337 25.1948 109.735 25.8698C110.133 26.5448 110.332 27.3124 110.332 28.1725C110.332 29.0327 110.132 29.803 109.735 30.4836C109.337 31.1643 108.784 31.6953 108.075 32.0758C107.366 32.4573 106.564 32.647 105.67 32.647C104.775 32.647 103.99 32.4563 103.281 32.0758ZM107.534 30.1489C108.025 29.6488 108.27 28.9896 108.27 28.1735C108.27 27.3573 108.025 26.6982 107.534 26.197C107.044 25.6969 106.422 25.4463 105.67 25.4463C104.918 25.4463 104.299 25.6969 103.813 26.197C103.328 26.6982 103.086 27.3563 103.086 28.1735C103.086 28.9906 103.328 29.6488 103.813 30.1489C104.299 30.6501 104.918 30.8997 105.67 30.8997C106.422 30.8997 107.044 30.6491 107.534 30.1489Z" fill="white"></path>
                                                <path d="M117.351 23.7148V25.6585C117.177 25.6258 117.019 25.6099 116.877 25.6099C116.081 25.6099 115.459 25.8418 115.012 26.3036C114.564 26.7664 114.341 27.433 114.341 28.3044V32.5339H112.297V23.8139H114.244V25.0873C114.833 24.173 115.869 23.7158 117.352 23.7158L117.351 23.7148Z" fill="white"></path>
                                                <path d="M127.18 28.826H120.326C120.446 29.4683 120.759 29.9769 121.266 30.3528C121.774 30.7286 122.403 30.9165 123.155 30.9165C124.115 30.9165 124.905 30.6005 125.527 29.9694L126.623 31.2269C126.231 31.6953 125.734 32.0487 125.135 32.288C124.535 32.5274 123.859 32.647 123.106 32.647C122.146 32.647 121.302 32.4563 120.571 32.0758C119.841 31.6953 119.276 31.1643 118.878 30.4836C118.48 29.803 118.281 29.0327 118.281 28.1725C118.281 27.3124 118.475 26.5589 118.862 25.8782C119.249 25.1976 119.786 24.6675 120.473 24.2861C121.16 23.9056 121.934 23.7148 122.795 23.7148C123.657 23.7148 124.406 23.9028 125.078 24.2786C125.748 24.6544 126.272 25.1827 126.648 25.8623C127.025 26.543 127.213 27.3292 127.213 28.2221C127.213 28.3632 127.202 28.5652 127.18 28.826ZM121.136 25.9278C120.684 26.3139 120.408 26.8291 120.31 27.4713H125.266C125.179 26.8403 124.911 26.3279 124.464 25.9362C124.017 25.5445 123.461 25.3481 122.795 25.3481C122.13 25.3481 121.587 25.5417 121.135 25.9278H121.136Z" fill="white"></path>
                                            </svg>