<svg xmlns="http://www.w3.org/2000/svg" width="141" height="43" viewBox="0 0 141 43" fill="none">
                                                <path d="M135.55 0H5.45074C2.43972 0 0 2.43546 0 5.44029V37.363C0 40.3679 2.43972 42.8043 5.45074 42.8043H135.55C138.56 42.8043 141 40.3688 141 37.363V5.44029C141 2.43546 138.56 0 135.55 0Z" fill="black"></path>
                                                <path d="M33.9304 20.8563L28.5583 17.7617L24.1406 22.0249L28.1781 25.9217L33.9304 22.6074C34.247 22.4251 34.4362 22.0979 34.4362 21.7323C34.4362 21.3668 34.247 21.0395 33.9304 20.8563Z" fill="#FFD109"></path>
                                                <path d="M27.6452 17.2367L21.7327 13.8308L8.77734 7.20312L23.4101 21.3232L27.6452 17.2367Z" fill="#06EF79"></path>
                                                <path d="M8.99219 36.643L21.7546 29.6245L27.2634 26.4496L23.4095 22.7305L8.99219 36.643Z" fill="#F93646"></path>
                                                <path d="M7.91249 7.77344L7.89844 36.2903L22.6819 22.0253L7.91249 7.77344Z" fill="#05D5FB"></path>
                                                <path d="M46.2098 25.8514H48.1765V30.3044C47.6005 30.7615 46.93 31.1131 46.162 31.358C45.395 31.603 44.6054 31.7254 43.7963 31.7254C42.6555 31.7254 41.6272 31.4777 40.7103 30.9831C39.7934 30.4886 39.0742 29.8051 38.5525 28.9319C38.0299 28.0596 37.7695 27.0752 37.7695 25.9794C37.7695 24.8837 38.0308 23.8993 38.5525 23.027C39.0742 22.1547 39.7972 21.4713 40.7187 20.9767C41.6403 20.4821 42.6771 20.2344 43.8281 20.2344C44.7656 20.2344 45.6188 20.3886 46.3858 20.6972C47.1529 21.0057 47.7981 21.4582 48.3198 22.0537L47.0086 23.3308C46.1554 22.48 45.1271 22.0537 43.9227 22.0537C43.1341 22.0537 42.4336 22.2192 41.8201 22.5483C41.2067 22.8783 40.7272 23.3411 40.3816 23.9366C40.0351 24.5322 39.8618 25.2137 39.8618 25.9794C39.8618 26.7451 40.0351 27.3949 40.3816 27.9905C40.7281 28.586 41.2076 29.0544 41.8201 29.3947C42.4326 29.735 43.1285 29.9052 43.9068 29.9052C44.7806 29.9052 45.5476 29.7135 46.2088 29.3302V25.8514H46.2098Z" fill="white"></path>
                                                <path d="M52.2221 31.1234C51.5291 30.7513 50.9887 30.2324 50.5991 29.5677C50.2095 28.9029 50.0156 28.1503 50.0156 27.3098C50.0156 26.4693 50.2104 25.7195 50.5991 25.0595C50.9878 24.4004 51.5291 23.8843 52.2221 23.5113C52.9152 23.1392 53.6925 22.9531 54.556 22.9531C55.4195 22.9531 56.2128 23.1392 56.9059 23.5113C57.5989 23.8834 58.1393 24.3994 58.5289 25.0595C58.9176 25.7195 59.1124 26.4693 59.1124 27.3098C59.1124 28.1503 58.9176 28.9029 58.5289 29.5677C58.1393 30.2324 57.5989 30.7513 56.9059 31.1234C56.2128 31.4955 55.4298 31.6815 54.556 31.6815C53.6822 31.6815 52.9143 31.4955 52.2221 31.1234ZM56.3786 29.2404C56.8581 28.7515 57.0978 28.1073 57.0978 27.3098C57.0978 26.5124 56.8581 25.8682 56.3786 25.3792C55.8991 24.8903 55.2912 24.6453 54.556 24.6453C53.8208 24.6453 53.2158 24.8903 52.7419 25.3792C52.2671 25.8691 52.0302 26.5124 52.0302 27.3098C52.0302 28.1073 52.2671 28.7515 52.7419 29.2404C53.2158 29.7303 53.8208 29.9744 54.556 29.9744C55.2912 29.9744 55.8991 29.7294 56.3786 29.2404Z" fill="white"></path>
                                                <path d="M62.5346 31.1234C61.8416 30.7513 61.3012 30.2324 60.9116 29.5677C60.522 28.9029 60.3281 28.1503 60.3281 27.3098C60.3281 26.4693 60.522 25.7195 60.9116 25.0595C61.3003 24.4004 61.8416 23.8843 62.5346 23.5113C63.2277 23.1392 64.005 22.9531 64.8685 22.9531C65.732 22.9531 66.5253 23.1392 67.2184 23.5113C67.9114 23.8834 68.4518 24.3994 68.8414 25.0595C69.2301 25.7195 69.4249 26.4693 69.4249 27.3098C69.4249 28.1503 69.2301 28.9029 68.8414 29.5677C68.4518 30.2324 67.9114 30.7513 67.2184 31.1234C66.5253 31.4955 65.7423 31.6815 64.8685 31.6815C63.9947 31.6815 63.2268 31.4955 62.5346 31.1234ZM66.6911 29.2404C67.1706 28.7515 67.4103 28.1073 67.4103 27.3098C67.4103 26.5124 67.1706 25.8682 66.6911 25.3792C66.2116 24.8903 65.6037 24.6453 64.8685 24.6453C64.1333 24.6453 63.5283 24.8903 63.0544 25.3792C62.5796 25.8691 62.3427 26.5124 62.3427 27.3098C62.3427 28.1073 62.5796 28.7515 63.0544 29.2404C63.5283 29.7303 64.1333 29.9744 64.8685 29.9744C65.6037 29.9744 66.2116 29.7294 66.6911 29.2404Z" fill="white"></path>
                                                <path d="M79.816 23.0485V30.2782C79.816 33.2784 78.281 34.7789 75.2119 34.7789C74.3915 34.7789 73.6132 34.6751 72.8781 34.4676C72.1429 34.26 71.535 33.959 71.0555 33.5663L71.9509 32.0658C72.3236 32.3743 72.7956 32.622 73.366 32.8081C73.9364 32.9941 74.5142 33.0876 75.1005 33.0876C76.038 33.0876 76.7254 32.8745 77.1628 32.4491C77.6002 32.0237 77.8184 31.3749 77.8184 30.5016V30.0548C77.4775 30.4269 77.0616 30.7092 76.5718 30.9009C76.0811 31.0925 75.5435 31.1879 74.9572 31.1879C74.1471 31.1879 73.4147 31.0149 72.7591 30.669C72.1035 30.3231 71.5865 29.8369 71.2082 29.2087C70.8298 28.5813 70.6406 27.8633 70.6406 27.0546C70.6406 26.2459 70.8298 25.5307 71.2082 24.908C71.5865 24.2854 72.1035 23.8048 72.7591 23.4636C73.4147 23.1233 74.1471 22.9531 74.9572 22.9531C75.5753 22.9531 76.1373 23.0541 76.6439 23.256C77.1497 23.458 77.5739 23.7665 77.9148 24.1816V23.0485H79.817H79.816ZM77.1225 28.8179C77.6076 28.3654 77.8502 27.7782 77.8502 27.0546C77.8502 26.331 77.6076 25.7616 77.1225 25.3147C76.6374 24.8678 76.0164 24.6444 75.2597 24.6444C74.503 24.6444 73.8661 24.8678 73.381 25.3147C72.8958 25.7616 72.6533 26.3413 72.6533 27.0546C72.6533 27.7679 72.8958 28.3663 73.381 28.8179C73.8661 29.2704 74.4917 29.4957 75.2597 29.4957C76.0277 29.4957 76.6374 29.2694 77.1225 28.8179Z" fill="white"></path>
                                                <path d="M82.4375 19.7266H84.4361V31.5682H82.4375V19.7266Z" fill="white"></path>
                                                <path d="M95.0475 27.9456H88.3492C88.4663 28.5738 88.7725 29.0703 89.2689 29.4377C89.7644 29.8051 90.3797 29.9884 91.1158 29.9884C92.0533 29.9884 92.826 29.6799 93.4338 29.0628L94.5052 30.2913C94.1212 30.7485 93.6361 31.0944 93.0507 31.329C92.4644 31.5628 91.8042 31.6806 91.068 31.6806C90.1296 31.6806 89.3036 31.4945 88.5899 31.1224C87.8753 30.7503 87.3246 30.2315 86.935 29.5667C86.5454 28.902 86.3516 28.1494 86.3516 27.3089C86.3516 26.4684 86.5407 25.7317 86.9191 25.067C87.2975 24.4022 87.822 23.8834 88.4935 23.5113C89.165 23.1392 89.9217 22.9531 90.7637 22.9531C91.6056 22.9531 92.338 23.1364 92.9936 23.5038C93.6492 23.8712 94.1605 24.3873 94.5286 25.052C94.8967 25.7167 95.0802 26.4862 95.0802 27.3585C95.0802 27.4968 95.0699 27.6932 95.0484 27.9493L95.0475 27.9456ZM89.1406 25.1128C88.6986 25.4905 88.4288 25.9935 88.3333 26.6208H93.1772C93.0919 26.0038 92.8306 25.5036 92.3942 25.1203C91.9568 24.7369 91.4136 24.5453 90.7637 24.5453C90.1137 24.5453 89.5827 24.7341 89.1406 25.1118V25.1128Z" fill="white"></path>
                                                <path d="M108.74 20.8771C109.459 21.1959 110.011 21.654 110.395 22.2496C110.779 22.8451 110.971 23.5528 110.971 24.3718C110.971 25.1908 110.779 25.8855 110.395 26.4866C110.011 27.0878 109.459 27.5477 108.74 27.8675C108.021 28.1863 107.176 28.3462 106.206 28.3462H103.68V31.5698H101.602V20.3984H106.206C107.175 20.3984 108.02 20.5583 108.74 20.8771ZM108.172 26.0164C108.642 25.633 108.876 25.0852 108.876 24.3728C108.876 23.6604 108.642 23.1116 108.172 22.7292C107.703 22.3459 107.016 22.1542 106.11 22.1542H103.68V26.5904H106.11C107.016 26.5904 107.703 26.3987 108.172 26.0154V26.0164Z" fill="white"></path>
                                                <path d="M113.02 19.7266H115.018V31.5682H113.02V19.7266Z" fill="white"></path>
                                                <path d="M123.785 23.8475C124.451 24.4487 124.784 25.3555 124.784 26.5681V31.5634H122.898V30.5256C122.652 30.8977 122.303 31.1829 121.851 31.3792C121.397 31.5755 120.851 31.6746 120.212 31.6746C119.572 31.6746 119.013 31.5652 118.533 31.3474C118.054 31.1296 117.683 30.8267 117.423 30.4377C117.161 30.0498 117.031 29.6103 117.031 29.1214C117.031 28.3557 117.316 27.7405 117.886 27.2777C118.457 26.8149 119.355 26.5831 120.58 26.5831H122.786V26.455C122.786 25.8594 122.607 25.4013 122.251 25.0825C121.894 24.7637 121.364 24.6039 120.66 24.6039C120.181 24.6039 119.709 24.6786 119.245 24.8273C118.782 24.9769 118.39 25.1835 118.07 25.45L117.287 23.998C117.735 23.6577 118.272 23.3969 118.902 23.2164C119.53 23.036 120.197 22.9453 120.9 22.9453C122.158 22.9453 123.12 23.2464 123.786 23.8466L123.785 23.8475ZM121.962 29.8796C122.351 29.6505 122.625 29.3233 122.785 28.8979V27.9088H120.723C119.572 27.9088 118.996 28.2865 118.996 29.0419C118.996 29.4037 119.14 29.6907 119.428 29.9039C119.715 30.1171 120.115 30.2227 120.627 30.2227C121.138 30.2227 121.573 30.1087 121.961 29.8796H121.962Z" fill="white"></path>
                                                <path d="M135.177 23.043L131.181 32.251C130.808 33.1765 130.355 33.8282 129.822 34.2059C129.289 34.5836 128.643 34.7724 127.888 34.7724C127.462 34.7724 127.04 34.7033 126.624 34.5649C126.208 34.4265 125.868 34.2349 125.602 33.9899L126.401 32.5221C126.593 32.7025 126.819 32.8465 127.08 32.9531C127.342 33.0597 127.605 33.113 127.872 33.113C128.224 33.113 128.514 33.0223 128.743 32.8418C128.972 32.6605 129.182 32.3576 129.374 31.9322L129.518 31.5975L125.794 23.043H127.872L130.558 29.3471L133.26 23.043H135.178H135.177Z" fill="white"></path>
                                                <path d="M41.3457 14.1972C40.8943 14.1972 40.4737 14.099 40.0832 13.9027C39.6927 13.7064 39.3527 13.4427 39.0633 13.1108C38.773 12.7799 38.5472 12.4059 38.3862 11.9908C38.2251 11.5757 38.1445 11.1456 38.1445 10.7015C38.1445 10.2575 38.2251 9.79935 38.3862 9.38425C38.5472 8.96915 38.7711 8.60079 39.0586 8.27918C39.3452 7.95757 39.6842 7.70514 40.0738 7.52096C40.4634 7.33772 40.8877 7.24609 41.3457 7.24609C42.0097 7.24609 42.5576 7.38446 42.9893 7.6612C43.4211 7.93793 43.747 8.29881 43.9661 8.7429L43.2993 9.20662C43.0998 8.80741 42.8254 8.51197 42.477 8.31844C42.1286 8.12492 41.7456 8.02862 41.326 8.02862C40.9776 8.02862 40.662 8.10248 40.3782 8.25019C40.0944 8.39791 39.8509 8.59985 39.6477 8.85322C39.4445 9.10751 39.2899 9.39547 39.1832 9.71708C39.0764 10.0387 39.024 10.3734 39.024 10.7212C39.024 11.0877 39.0839 11.4336 39.2028 11.7589C39.3218 12.0843 39.4913 12.3704 39.7104 12.6181C39.9296 12.8659 40.1843 13.0603 40.4747 13.2025C40.765 13.3436 41.0778 13.4147 41.4131 13.4147C41.8065 13.4147 42.1801 13.3146 42.5351 13.1155C42.89 12.9164 43.2253 12.6107 43.541 12.1984V13.0959C42.9219 13.8298 42.1904 14.1963 41.3457 14.1963V14.1972ZM43.4342 11.3878H41.9544V10.7315H44.1694V14.1486H43.4342V11.3878Z" fill="white"></path>
                                                <path d="M50.1534 13.3746V14.1468H45.4922V7.29297H50.0663V8.06521H46.3622V10.2856H49.5831V11.0093H46.3622V13.3746H50.1534Z" fill="white"></path>
                                                <path d="M56.2965 8.06521H53.927V14.1468H53.057V8.06521H50.6875V7.29297H56.2965V8.06521Z" fill="white"></path>
                                                <path d="M59.4375 14.1468V7.29297H60.3076V14.1468H59.4375Z" fill="white"></path>
                                                <path d="M62.8232 8.89542V14.1468H61.9531V7.29297H62.6883L66.885 12.651V7.30232H67.7551V14.1468H66.9618L62.8232 8.89542Z" fill="white"></path>
                                                <path d="M74.6316 14.1972C74.1483 14.1972 73.71 14.1009 73.3167 13.9074C72.9233 13.7139 72.5833 13.4521 72.2968 13.1202C72.0102 12.7883 71.7891 12.4153 71.6346 12.0001C71.4801 11.585 71.4023 11.1587 71.4023 10.7212C71.4023 10.2836 71.4848 9.82834 71.6487 9.41323C71.8135 8.99813 72.042 8.6279 72.3351 8.30349C72.6283 7.97813 72.972 7.72103 73.3654 7.53124C73.7587 7.34146 74.1877 7.24609 74.6512 7.24609C75.1148 7.24609 75.5728 7.34613 75.9662 7.54527C76.3595 7.7444 76.6976 8.01179 76.9814 8.34649C77.2652 8.68119 77.4843 9.05422 77.6389 9.46652C77.7934 9.87882 77.8711 10.3005 77.8711 10.7315C77.8711 11.1886 77.7906 11.6243 77.6295 12.0394C77.4684 12.4545 77.2408 12.8247 76.9477 13.1492C76.6545 13.4745 76.3108 13.7297 75.9175 13.9167C75.5241 14.1037 75.0952 14.1963 74.6316 14.1963V14.1972ZM72.2818 10.7221C72.2818 11.0699 72.338 11.4065 72.4513 11.7309C72.5637 12.0562 72.7238 12.3442 72.9299 12.5948C73.1359 12.8453 73.3841 13.0454 73.6744 13.1931C73.9648 13.3408 74.2869 13.4147 74.6419 13.4147C74.9968 13.4147 75.3377 13.3371 75.6281 13.1828C75.9184 13.0286 76.1647 12.8229 76.3679 12.5648C76.5712 12.3077 76.7257 12.0179 76.8325 11.6963C76.9392 11.3747 76.9917 11.0493 76.9917 10.7212C76.9917 10.3734 76.9355 10.0387 76.8222 9.71708C76.7098 9.39547 76.5478 9.10751 76.3389 8.85322C76.1291 8.59892 75.8809 8.39978 75.5944 8.25487C75.3078 8.10996 74.9903 8.03797 74.6419 8.03797C74.2748 8.03797 73.946 8.1137 73.6557 8.26515C73.3654 8.41661 73.119 8.62042 72.9158 8.87846C72.7126 9.13556 72.5562 9.42352 72.4466 9.74232C72.337 10.0611 72.2818 10.3874 72.2818 10.7221Z" fill="white"></path>
                                                <path d="M79.9482 8.89542V14.1468H79.0781V7.29297H79.8133L84.011 12.651V7.30232H84.881V14.1468H84.0877L79.9491 8.89542H79.9482Z" fill="white"></path>
                                            </svg>